<?xml version='1.0' encoding='iso-8859-1'?>
<svg version="1.1" fill="#fff" xmlns="http://www.w3.org/2000/svg" viewBox="0 0 374.6 374.6" xmlns:xlink="http://www.w3.org/1999/xlink" enable-background="new 0 0 374.6 374.6">
  <g>
    <path d="M187.3,0C109.011,0,45.318,63.692,45.318,141.981c0,32.681,21.187,77.931,64.772,138.337   c30.776,42.653,61.077,76.378,62.352,77.793L187.3,374.6l14.858-16.489c1.275-1.415,31.575-35.14,62.352-77.793   c43.585-60.405,64.772-105.655,64.772-138.337C329.281,63.692,265.588,0,187.3,0z M232.275,256.631   c-16.638,23.08-33.433,43.769-44.977,57.49c-11.484-13.65-28.174-34.208-44.77-57.208c-49.777-68.987-57.209-101.62-57.209-114.931   C85.318,85.748,131.067,40,187.3,40s101.981,45.748,101.981,101.981C289.281,155.266,281.875,187.826,232.275,256.631z"/>
    <circle cx="187.3" cy="141.982" r="49.696"/>
  </g>
</svg>
